<svg width="266" height="266" viewBox="0 0 266 266" fill="none" xmlns="http://www.w3.org/2000/svg">
<path d="M122.174 53.865C130.816 53.865 139.104 57.298 145.215 63.4089C151.326 69.5198 154.759 77.8079 154.759 86.45V246.715H89.5887V86.45C89.5887 82.1709 90.4316 77.9336 92.0691 73.9802C93.7067 70.0269 96.1069 66.4347 99.1327 63.4089C102.158 60.3831 105.751 57.9829 109.704 56.3454C113.657 54.7078 117.895 53.865 122.174 53.865Z" fill="white" stroke="#070707" stroke-miterlimit="10"/>
<path d="M129.348 76.1584L139.331 75.4109L134.011 64.5049L126.297 63.9729L129.348 76.1584Z" fill="#070707"/>
<path d="M79.8425 68.0693V247.114" stroke="#070707" stroke-width="0.96" stroke-miterlimit="10"/>
<path d="M60.0336 75.0598L80.0261 100.253L105.546 74.7327" stroke="#070707" stroke-width="1.22" stroke-miterlimit="10"/>
<path d="M57.9987 61.3264L80.0261 83.3565L102.056 61.3264" stroke="#070707" stroke-width="1.22" stroke-miterlimit="10"/>
<path d="M212.67 125.552C212.67 125.552 204.235 128.93 217.535 138.376C230.835 147.822 247.061 157.262 236.953 162.93C226.845 168.599 209.289 161.582 226.845 179.659C244.401 197.736 225.249 219.325 225.249 247.119" stroke="#070707" stroke-width="1.01" stroke-miterlimit="10"/>
<path d="M59.8633 95.6191C60.0911 95.818 60.3069 96.0303 60.5097 96.2548C61.5688 97.4246 62.2573 98.8822 62.4882 100.443C62.719 102.004 62.4818 103.599 61.8066 105.025C61.1314 106.451 60.0485 107.646 58.6947 108.456C57.341 109.267 55.7772 109.659 54.201 109.581C52.6249 109.503 51.1072 108.96 49.8398 108.02C48.5724 107.08 47.6121 105.785 47.0805 104.299C46.5489 102.813 46.4697 101.203 46.853 99.6724C47.2363 98.1416 48.0648 96.7588 49.2339 95.6989C49.3616 95.5818 49.4999 95.4728 49.6249 95.3664C49.611 95.3565 49.5977 95.3459 49.585 95.3344C48.7238 94.5743 48.0371 93.637 47.572 92.5866C47.107 91.5362 46.8745 90.3977 46.8907 89.2491C46.9069 88.1005 47.1713 86.969 47.6657 85.9322C48.1601 84.8953 48.873 83.9776 49.7553 83.2421C49.6968 83.1969 49.6409 83.149 49.585 83.0984C48.3686 82.015 47.5128 80.5851 47.1328 79.001C46.7528 77.4169 46.8667 75.7545 47.4592 74.237C48.0517 72.7195 49.0944 71.4197 50.4473 70.5123C51.8002 69.6048 53.3984 69.1331 55.0272 69.1606C56.656 69.188 58.2374 69.7133 59.5589 70.6659C60.8804 71.6185 61.8787 72.9527 62.4197 74.4893C62.9607 76.0258 63.0185 77.6912 62.5853 79.2616C62.1521 80.832 61.2486 82.2321 59.9963 83.274C60.0548 83.3192 60.1107 83.3671 60.1665 83.4176C61.0367 84.1886 61.7279 85.1403 62.1918 86.2063C62.6557 87.2722 62.881 88.4267 62.8522 89.5889C62.8233 90.751 62.5408 91.8929 62.0245 92.9345C61.5083 93.9761 60.7706 94.8923 59.8633 95.6191Z" fill="#BE7880" stroke="#070707" stroke-width="1.1" stroke-miterlimit="10"/>
<path d="M54.0538 109.76V247.114" stroke="#070707" stroke-width="0.98" stroke-miterlimit="10"/>
<path d="M195.795 128.744H198.577C201.171 128.744 203.659 129.774 205.493 131.609C207.327 133.443 208.358 135.931 208.358 138.525V246.981H186.014V138.525C186.014 135.931 187.044 133.443 188.879 131.609C190.713 129.774 193.201 128.744 195.795 128.744Z" fill="white" stroke="#070707" stroke-width="1.01" stroke-miterlimit="10"/>
<path d="M197.228 97.8296V247.114" stroke="#070707" stroke-width="1.17" stroke-miterlimit="10"/>
<path d="M215.936 163.643V246.196" stroke="#070707" stroke-width="1.1" stroke-miterlimit="10"/>
<path d="M63.6538 247.114V174.052" stroke="#070707" stroke-width="0.95" stroke-miterlimit="10"/>
<path d="M45.0205 163.646L63.7522 189.9L63.7841 210.111L47.6592 189.884L45.0205 163.646Z" fill="#BF6C2B" stroke="#070707" stroke-width="1.1" stroke-miterlimit="10"/>
<path d="M63.7842 184.386L71.9929 169.362L83.2793 167.896V177.717L63.7842 184.386Z" fill="white" stroke="#070707" stroke-width="1.1" stroke-miterlimit="10"/>
<path d="M197.175 106.195H150.415C150.415 106.195 158.182 122.602 177.677 124.653C197.173 126.704 197.175 145.858 197.175 145.858V106.195Z" fill="#BE7880" stroke="#070707" stroke-width="1.1" stroke-miterlimit="10"/>
<path d="M164.92 108.677C164.92 108.677 165.359 116.737 180.311 118.785C195.263 120.833 197.17 132.521 197.17 132.521V106.187H165.181L164.92 108.677Z" fill="#BF6C2B" stroke="#070707" stroke-width="1.1" stroke-miterlimit="10"/>
<path d="M197.175 106.195H243.922C243.922 106.195 236.155 122.602 216.66 124.653C197.164 126.704 197.164 145.858 197.164 145.858L197.175 106.195Z" fill="#BE7880" stroke="#070707" stroke-width="1.1" stroke-miterlimit="10"/>
<path d="M229.422 108.677C229.422 108.677 228.983 116.737 214.032 118.785C199.08 120.833 197.175 132.521 197.175 132.521V106.187H229.162L229.422 108.677Z" fill="#BF6C2B" stroke="#070707" stroke-width="1.1" stroke-miterlimit="10"/>
<path d="M197.175 103.107C200.09 103.107 202.453 100.744 202.453 97.8294C202.453 94.9148 200.09 92.552 197.175 92.552C194.261 92.552 191.898 94.9148 191.898 97.8294C191.898 100.744 194.261 103.107 197.175 103.107Z" fill="#BF6C2B" stroke="#070707" stroke-width="1.1" stroke-miterlimit="10"/>
<path d="M197.175 107.797C202.68 107.797 207.142 103.334 207.142 97.8296C207.142 92.3249 202.68 87.8625 197.175 87.8625C191.671 87.8625 187.208 92.3249 187.208 97.8296C187.208 103.334 191.671 107.797 197.175 107.797Z" stroke="#070707" stroke-miterlimit="10"/>
<path d="M47.6672 189.895C47.6672 189.895 63.5953 213.159 63.7097 189.895L63.8241 210.066L47.6672 189.895Z" fill="#070707"/>
<path d="M71.961 169.269C72.0222 169.171 63.8241 184.394 63.8241 184.394L83.3059 177.744C83.3059 177.744 61.1801 186.229 71.961 169.269Z" fill="#070707"/>
<path d="M188.245 128.324C188.245 128.324 196.491 122.121 206.105 128.324C201.157 132.328 197.923 138.068 197.061 144.374C197.061 144.374 195.201 132.644 188.245 128.324Z" fill="#070707"/>
<path d="M192.661 95.0923C192.661 95.0923 194.297 103.775 202.237 99.3323C202.237 99.3323 201.234 103.03 197.223 103.144C197.218 103.144 189.594 102.168 192.661 95.0923Z" fill="#070707"/>
<path d="M47.082 75.3418C47.082 75.3418 49.7021 82.859 53.9581 82.593C53.9581 82.593 44.6481 89.775 52.3621 95.095C52.3621 95.095 46.9091 104.972 52.5616 109.342C52.5616 109.342 47.6565 108.959 46.6856 102.16C46.6856 102.16 46.2441 97.755 49.7021 95.361C49.7021 95.361 46.6058 93.5362 46.957 88.0646C46.957 88.0646 47.0421 85.785 49.7021 83.125C49.6888 83.125 46.5739 81.662 47.082 75.3418Z" fill="#070707"/>
<path d="M87.0644 199.221C89.8175 199.221 92.0493 196.989 92.0493 194.236C92.0493 191.483 89.8175 189.251 87.0644 189.251C84.3114 189.251 82.0796 191.483 82.0796 194.236C82.0796 196.989 84.3114 199.221 87.0644 199.221Z" fill="#BF6C2B" stroke="#070707" stroke-width="1.1" stroke-miterlimit="10"/>
<path d="M84.2581 190.137C84.2581 190.137 81.3454 198.042 90.9959 197.297C90.9959 197.297 87.9023 200.902 83.8458 198.04C83.8458 198.04 79.4462 194.606 84.2581 190.137Z" fill="#070707"/>
<path d="M82.8084 219.437C85.5615 219.437 87.7933 217.205 87.7933 214.452C87.7933 211.699 85.5615 209.467 82.8084 209.467C80.0554 209.467 77.8236 211.699 77.8236 214.452C77.8236 217.205 80.0554 219.437 82.8084 219.437Z" fill="#BF6C2B" stroke="#070707" stroke-width="1.1" stroke-miterlimit="10"/>
<path d="M80.0021 210.353C80.0021 210.353 77.0894 218.258 86.7399 217.513C86.7399 217.513 83.6463 221.118 79.5898 218.256C79.5898 218.256 75.1902 214.822 80.0021 210.353Z" fill="#070707"/>
<path d="M83.141 246.05V219.45" stroke="#070707" stroke-width="1.2" stroke-miterlimit="10"/>
<path d="M56.0727 227.297H74.9587C74.9587 227.297 83.2047 227.563 83.2047 245.651C83.2047 245.651 62.9887 246.183 63.5207 237.671C63.5207 237.671 52.3487 235.543 56.0727 227.297Z" fill="#BF6C2B" stroke="#070707" stroke-width="1.1" stroke-miterlimit="10"/>
<path d="M110.39 227.297H91.5041C91.5041 227.297 83.2581 227.563 83.2581 245.651C83.2581 245.651 103.474 246.183 102.942 237.671C102.942 237.671 114.114 235.543 110.39 227.297Z" fill="white" stroke="#070707" stroke-width="1.1" stroke-miterlimit="10"/>
<path d="M97.3799 214.997C97.3799 214.997 97.207 227.393 101.936 232.154C106.666 236.915 106.474 241.531 102.788 240.424C99.1009 239.317 82.6116 223.294 82.6116 223.294C82.6116 223.294 83.7128 217.745 86.5324 216.949C89.352 216.154 94.5576 213.345 91.6502 208.969L97.3799 214.997Z" fill="#ECE856" stroke="#070707" stroke-width="1.08" stroke-linejoin="bevel"/>
<path d="M82.5903 222.195C82.5903 222.195 101.476 239.387 105.009 239.812C105.009 239.812 104.554 242.097 101.458 240.344C98.3615 238.591 82.194 223.706 82.194 223.706L82.5903 222.195Z" fill="white" stroke="#070707" stroke-width="1.07" stroke-miterlimit="10"/>
<path d="M134.596 143.241C134.104 155.802 98.1859 216.708 98.1859 216.708L90.0995 213.066C90.0995 213.066 94.4778 194.148 96.7096 191.602C101.585 186.048 108.661 184.593 107.123 178.925C105.722 173.762 107.475 163.904 107.581 161.592C107.581 161.592 100.535 139.9 120.118 124.919L134.596 143.241Z" fill="white" stroke="#070707" stroke-width="1.28" stroke-miterlimit="10"/>
<path d="M90.8922 213.473L97.4119 216.46L97.6513 220.676L90.7007 213.827L90.8922 213.473Z" fill="#070707"/>
<path d="M132.439 226.48C132.439 226.48 138.251 237.251 144.616 238.812C150.982 240.374 153.035 244.457 149.327 245.478C145.619 246.499 123.709 241.549 123.709 241.549C123.709 241.549 121.99 236.179 124.036 233.982C126.081 231.784 129.212 226.573 124.602 224.358L132.439 226.48Z" fill="#ECE856" stroke="#070707" stroke-width="1.08" stroke-linejoin="bevel"/>
<path d="M123.637 241.395C123.637 241.395 147.843 246.353 151.274 244.826C151.274 244.826 152.022 247.04 148.306 247.178C144.59 247.316 123.371 243.257 123.371 243.257L123.637 241.395Z" fill="white" stroke="#070707" stroke-width="1.1" stroke-miterlimit="10"/>
<path d="M134.918 142.935C140.536 154.017 134.468 227.257 134.468 227.257L125.746 228.47C125.746 228.47 120.426 209.826 121.118 206.437C122.642 199.037 128.034 193.986 123.985 189.929C120.296 186.237 116.678 171.631 115.657 169.583C115.657 169.583 103.421 161.071 109.204 136.442L134.918 142.935Z" fill="white" stroke="#070707" stroke-width="1.28" stroke-miterlimit="10"/>
<path d="M126.962 228.228L132.814 227.43L135.405 231.226L126.962 229.026V228.228Z" fill="#070707"/>
<path d="M116.668 79.409L116.721 84.721L124.435 84.987V78.603H116.987L116.668 79.409Z" fill="white" stroke="#070707" stroke-width="1.04" stroke-miterlimit="10"/>
<path d="M130.792 63.8613L130.811 65.6807C130.812 65.8204 130.842 65.9583 130.901 66.0851L133.029 70.764C133.359 71.4875 132.763 72.2802 131.888 72.2908C131.616 72.2845 131.349 72.3692 131.13 72.5316C130.912 72.694 130.753 72.9247 130.68 73.1873C130.302 74.9263 129.347 76.4866 127.971 77.6158C126.596 78.7449 124.879 79.3767 123.099 79.409L117.189 79.4728C116.877 79.4933 116.57 79.3895 116.335 79.1841C116.1 78.9787 115.955 78.6885 115.933 78.3769L115.779 64.0129C115.794 63.7005 115.931 63.4066 116.162 63.1957C116.393 62.9848 116.698 62.874 117.011 62.8877L129.542 62.776C129.851 62.7576 130.155 62.8609 130.388 63.0637C130.622 63.2666 130.767 63.5529 130.792 63.8613Z" fill="white" stroke="#070707" stroke-width="1.04" stroke-miterlimit="10"/>
<path d="M27.7305 247.042H228.404" stroke="#070707" stroke-width="1.1" stroke-miterlimit="10"/>
<path d="M115.524 86.1839L116.721 83.0637L125.366 85.3859L134.942 105.602L140.794 188.328L98.4998 179.816L115.524 86.1839Z" fill="#070707"/>
<path d="M149.971 157.871C149.971 157.871 170.453 160.531 170.985 182.343C170.985 182.343 155.025 186.333 149.971 157.871Z" fill="white" stroke="#070707" stroke-width="1.1" stroke-miterlimit="10"/>
<path d="M170.719 182.077C170.719 182.077 186.679 186.067 191.733 157.605C191.733 157.605 171.251 160.265 170.719 182.077Z" fill="white" stroke="#070707" stroke-width="1.1" stroke-miterlimit="10"/>
<path d="M170.748 142.518V247.114" stroke="#070707" stroke-width="0.88" stroke-miterlimit="10"/>
<path d="M176.382 142.517C176.381 143.56 176.072 144.58 175.492 145.447C174.912 146.314 174.088 146.99 173.125 147.389C172.161 147.787 171.1 147.892 170.077 147.688C169.055 147.484 168.115 146.982 167.377 146.245C166.64 145.507 166.137 144.567 165.934 143.544C165.73 142.522 165.835 141.461 166.233 140.497C166.632 139.534 167.308 138.71 168.175 138.13C169.042 137.55 170.061 137.241 171.105 137.24C171.798 137.239 172.485 137.375 173.125 137.64C173.766 137.904 174.348 138.293 174.839 138.783C175.329 139.274 175.718 139.856 175.982 140.497C176.247 141.137 176.383 141.824 176.382 142.517Z" fill="#BF6C2B" stroke="#070707" stroke-width="1.1" stroke-miterlimit="10"/>
<path d="M171.107 152.485C176.612 152.485 181.074 148.022 181.074 142.518C181.074 137.013 176.612 132.551 171.107 132.551C165.603 132.551 161.14 137.013 161.14 142.518C161.14 148.022 165.603 152.485 171.107 152.485Z" stroke="#070707" stroke-miterlimit="10"/>
<path d="M27.0789 157.339C27.0789 157.339 47.5609 159.999 48.0929 181.811C48.0929 181.811 32.1329 185.801 27.0789 157.339Z" fill="white" stroke="#070707" stroke-width="1.1" stroke-miterlimit="10"/>
<path d="M47.8268 181.545C47.8268 181.545 63.7868 185.535 68.8408 157.073C68.8408 157.073 48.3588 159.733 47.8268 181.545Z" fill="white" stroke="#070707" stroke-width="1.1" stroke-miterlimit="10"/>
<path d="M47.8374 141.986V246.848" stroke="#070707" stroke-width="0.86" stroke-miterlimit="10"/>
<path d="M48.2152 147.263C51.1298 147.263 53.4926 144.9 53.4926 141.985C53.4926 139.071 51.1298 136.708 48.2152 136.708C45.3005 136.708 42.9377 139.071 42.9377 141.985C42.9377 144.9 45.3005 147.263 48.2152 147.263Z" fill="#BF6C2B" stroke="#070707" stroke-width="1.1" stroke-miterlimit="10"/>
<path d="M48.2152 151.953C53.7198 151.953 58.1822 147.49 58.1822 141.986C58.1822 136.481 53.7198 132.019 48.2152 132.019C42.7106 132.019 38.2482 136.481 38.2482 141.986C38.2482 147.49 42.7106 151.953 48.2152 151.953Z" stroke="#070707" stroke-miterlimit="10"/>
<path d="M154.493 216.657C154.493 216.657 174.975 219.317 175.507 241.129C175.507 241.129 159.547 245.119 154.493 216.657Z" fill="white" stroke="#070707" stroke-width="1.1" stroke-miterlimit="10"/>
<path d="M175.241 240.863C175.241 240.863 191.201 244.853 196.255 216.391C196.255 216.391 175.773 219.051 175.241 240.863Z" fill="white" stroke="#070707" stroke-width="1.1" stroke-miterlimit="10"/>
<path d="M175.124 201.57V246.848" stroke="#070707" stroke-width="0.86" stroke-miterlimit="10"/>
<path d="M180.904 201.304C180.904 202.347 180.594 203.368 180.015 204.236C179.435 205.103 178.61 205.78 177.646 206.179C176.682 206.579 175.621 206.683 174.597 206.48C173.573 206.276 172.633 205.773 171.895 205.035C171.157 204.297 170.654 203.357 170.451 202.333C170.247 201.309 170.351 200.248 170.751 199.284C171.15 198.32 171.827 197.495 172.695 196.916C173.562 196.336 174.583 196.026 175.627 196.026C176.32 196.025 177.007 196.161 177.647 196.426C178.288 196.691 178.87 197.079 179.361 197.57C179.851 198.06 180.24 198.642 180.504 199.283C180.769 199.923 180.905 200.61 180.904 201.304Z" fill="#BF6C2B" stroke="#070707" stroke-width="1.1" stroke-miterlimit="10"/>
<path d="M175.629 211.27C181.134 211.27 185.596 206.808 185.596 201.303C185.596 195.799 181.134 191.336 175.629 191.336C170.125 191.336 165.662 195.799 165.662 201.303C165.662 206.808 170.125 211.27 175.629 211.27Z" stroke="#070707" stroke-miterlimit="10"/>
<path d="M46.6723 137.003C46.6723 137.003 43.5708 145.103 50.2208 146.699C50.2208 146.699 47.0101 148.912 43.1611 143.949C43.1611 143.949 41.5279 139.009 46.6723 137.003Z" fill="#070707"/>
<path d="M180.215 69.9314V247.114" stroke="#070707" stroke-width="1.11" stroke-miterlimit="10"/>
<path d="M160.316 76.9219L180.308 102.115L205.828 76.5947" stroke="#070707" stroke-width="1.22" stroke-miterlimit="10"/>
<path d="M158.281 63.1882L180.308 85.2184L202.338 63.1882" stroke="#070707" stroke-width="1.22" stroke-miterlimit="10"/>
<path d="M208.892 220.501C211.645 220.501 213.877 218.269 213.877 215.516C213.877 212.763 211.645 210.531 208.892 210.531C206.139 210.531 203.908 212.763 203.908 215.516C203.908 218.269 206.139 220.501 208.892 220.501Z" fill="#BF6C2B" stroke="#070707" stroke-width="1.1" stroke-miterlimit="10"/>
<path d="M206.086 211.417C206.086 211.417 203.16 219.322 212.824 218.577C212.824 218.577 209.73 222.182 205.674 219.32C205.674 219.32 201.274 215.886 206.086 211.417Z" fill="#070707"/>
<path d="M209.225 247.114V220.514" stroke="#070707" stroke-width="1.2" stroke-miterlimit="10"/>
<path d="M182.157 228.361H201.043C201.043 228.361 209.289 228.627 209.289 246.715C209.289 246.715 189.073 247.247 189.605 238.735C189.605 238.735 178.433 236.607 182.157 228.361Z" fill="#BF6C2B" stroke="#070707" stroke-width="1.1" stroke-miterlimit="10"/>
<path d="M236.474 228.361H217.588C217.588 228.361 209.342 228.627 209.342 246.715C209.342 246.715 229.558 247.247 229.026 238.735C229.026 238.735 240.198 236.607 236.474 228.361Z" fill="white" stroke="#070707" stroke-width="1.1" stroke-miterlimit="10"/>
<path d="M97.9624 152.748C100.024 152.748 101.694 151.077 101.694 149.016C101.694 146.955 100.024 145.284 97.9624 145.284C95.9013 145.284 94.2305 146.955 94.2305 149.016C94.2305 151.077 95.9013 152.748 97.9624 152.748Z" fill="#BE7880" stroke="#070707" stroke-width="0.83" stroke-miterlimit="10"/>
<path d="M95.8611 145.946C95.8611 145.946 93.6799 151.867 100.915 151.309C100.915 151.309 98.5982 154.006 95.5632 151.865C95.5525 151.865 92.2568 149.293 95.8611 145.946Z" fill="#070707"/>
<path d="M40.2405 124.286C42.3016 124.286 43.9725 122.615 43.9725 120.554C43.9725 118.493 42.3016 116.822 40.2405 116.822C38.1794 116.822 36.5085 118.493 36.5085 120.554C36.5085 122.615 38.1794 124.286 40.2405 124.286Z" fill="#BE7880" stroke="#070707" stroke-width="0.83" stroke-miterlimit="10"/>
<path d="M38.139 117.484C38.139 117.484 35.9578 123.405 43.193 122.847C43.193 122.847 40.8762 125.544 37.8411 123.403C37.8305 123.403 34.5347 120.83 38.139 117.484Z" fill="#070707"/>
<path d="M209.076 127.648L100.016 64.6807C103.221 55.0836 102.766 44.6403 98.7369 35.3588C94.7081 26.0772 87.3904 18.6126 78.1908 14.4001C68.9911 10.1876 58.559 9.52454 48.9001 12.5385C39.2411 15.5524 31.0373 22.0306 25.8658 30.7274C20.6944 39.4242 18.9204 49.7258 20.8849 59.6514C22.8495 69.5771 28.4138 78.4262 36.5082 84.4974C44.6026 90.5686 54.6557 93.4333 64.7344 92.5406C74.8132 91.648 84.2063 87.0611 91.1077 79.6618L200.351 142.744C201.004 143.119 201.778 143.22 202.505 143.025C203.232 142.83 203.852 142.355 204.229 141.704L210.105 131.526C210.481 130.875 210.583 130.102 210.39 129.375C210.198 128.648 209.725 128.028 209.076 127.648ZM61.1268 80.1991C55.4975 80.1991 49.9947 78.5298 45.3142 75.4024C40.6336 72.275 36.9856 67.8298 34.8313 62.6291C32.6771 57.4283 32.1135 51.7055 33.2117 46.1845C34.3099 40.6634 37.0206 35.5919 41.0011 31.6114C44.9816 27.631 50.053 24.9202 55.5741 23.822C61.0952 22.7238 66.818 23.2874 72.0187 25.4417C77.2195 27.5959 81.6646 31.2439 84.7921 35.9245C87.9195 40.605 89.5888 46.1079 89.5888 51.7371C89.5888 59.2857 86.5901 66.5251 81.2525 71.8628C75.9148 77.2004 68.6754 80.1991 61.1268 80.1991Z" fill="white" stroke="#070707" stroke-miterlimit="10"/>
<path d="M152.625 90.2086C152.625 90.2086 155.767 83.6596 158.743 84.2634C161.72 84.8673 167.543 85.5934 163.505 88.8253C159.467 92.0572 151.886 97.5102 151.886 97.5102L149.519 93.9326L152.625 90.2086Z" fill="white" stroke="#070707" stroke-width="1.28" stroke-miterlimit="10"/>
<path d="M150.221 93.5175L154.812 100.093L124.488 121.729L115.338 95.7599L115.87 95.0922C116.489 94.3085 117.296 93.6934 118.216 93.3038C119.136 92.9141 120.14 92.7623 121.134 92.8625C122.128 92.9627 123.081 93.3116 123.905 93.877C124.728 94.4424 125.396 95.2061 125.847 96.0977L130.955 106.206L150.221 93.5175Z" fill="#070707"/>
<path d="M122.304 71.0458L124.358 79.7813L113.13 77.9379C113.281 75.0655 113.595 72.2041 114.071 69.3674C114.425 67.1596 114.782 65.3774 114.96 64.5235C114.96 64.5235 114.96 64.5235 114.96 64.5049C115.013 64.3187 115.066 64.1352 115.125 63.949C116.154 60.6 118.075 57.283 121.639 56.6579C132.279 54.7959 136.269 65.4359 136.269 65.4359L121.466 67.5639L121.376 67.5772L122.03 69.7052C122.129 70.1893 122.171 70.5032 122.171 70.5032L122.304 71.0458Z" fill="#070707"/>
<path d="M174.733 146.351C174.213 146.83 173.602 147.2 172.936 147.439C172.27 147.678 171.563 147.78 170.857 147.74C170.151 147.7 169.46 147.519 168.825 147.207C168.191 146.895 167.625 146.458 167.163 145.923C166.7 145.388 166.35 144.766 166.132 144.092C165.915 143.419 165.835 142.709 165.898 142.005C165.96 141.3 166.164 140.616 166.496 139.991C166.829 139.367 167.283 138.816 167.833 138.371C168.256 140.797 169.708 145.143 174.733 146.351Z" fill="#070707"/>
<path d="M178.662 205.618C177.532 206.43 176.127 206.764 174.753 206.546C173.379 206.328 172.147 205.576 171.324 204.454C170.501 203.332 170.155 201.93 170.361 200.554C170.566 199.178 171.307 197.939 172.421 197.106C172.77 198.968 174.134 204.139 178.662 205.618Z" fill="#070707"/>
</svg>
