<svg width="266" height="266" viewBox="0 0 266 266" fill="none" xmlns="http://www.w3.org/2000/svg">
<path d="M173.408 142.783V247.38" stroke="#070707" stroke-width="0.88" stroke-miterlimit="10"/>
<path d="M173.767 146.997C176.682 146.997 179.045 144.634 179.045 141.72C179.045 138.805 176.682 136.442 173.767 136.442C170.853 136.442 168.49 138.805 168.49 141.72C168.49 144.634 170.853 146.997 173.767 146.997Z" fill="#BF6C2B" stroke="#070707" stroke-width="1.1" stroke-miterlimit="10"/>
<path d="M169.564 138.599C169.564 138.599 170.831 146.074 178.076 144.922C178.076 144.922 175.712 147.814 172.145 146.723C168.578 145.632 167.875 141.142 169.564 138.599Z" fill="#070707"/>
<path d="M124.834 54.1311C133.476 54.1311 141.764 57.5642 147.875 63.675C153.986 69.7859 157.419 78.074 157.419 86.7161V246.981H92.2488V86.7161C92.2488 82.437 93.0916 78.1998 94.7292 74.2464C96.3667 70.293 98.7669 66.7008 101.793 63.675C104.819 60.6492 108.411 58.249 112.364 56.6115C116.317 54.9739 120.555 54.1311 124.834 54.1311V54.1311Z" fill="white" stroke="#070707" stroke-miterlimit="10"/>
<path d="M82.5026 68.3354V247.38" stroke="#070707" stroke-width="0.96" stroke-miterlimit="10"/>
<path d="M62.6936 75.326L82.6862 100.519L108.206 74.9988" stroke="#070707" stroke-width="1.22" stroke-miterlimit="10"/>
<path d="M60.6587 61.5923L82.6862 83.6224L104.716 61.5923" stroke="#070707" stroke-width="1.22" stroke-miterlimit="10"/>
<path d="M215.33 125.818C215.33 125.818 206.895 129.196 220.195 138.642C233.495 148.087 249.721 157.528 239.613 163.196C229.505 168.865 211.949 161.848 229.505 179.925C247.061 198.002 227.909 219.591 227.909 247.385" stroke="#070707" stroke-width="1.01" stroke-miterlimit="10"/>
<path d="M62.5233 95.8849C62.7511 96.0839 62.967 96.2962 63.1697 96.5207C64.2288 97.6905 64.9173 99.1481 65.1482 100.709C65.3791 102.27 65.1419 103.865 64.4667 105.291C63.7915 106.717 62.7085 107.911 61.3548 108.722C60.001 109.533 58.4372 109.925 56.8611 109.847C55.2849 109.769 53.7672 109.226 52.4998 108.286C51.2324 107.346 50.2722 106.051 49.7405 104.565C49.2089 103.079 49.1297 101.469 49.513 99.9383C49.8963 98.4075 50.7249 97.0247 51.894 95.9647C52.0216 95.8477 52.16 95.7386 52.285 95.6322C52.271 95.6224 52.2577 95.6118 52.2451 95.6003C51.3838 94.8402 50.6971 93.9028 50.232 92.8525C49.767 91.8021 49.5346 90.6636 49.5507 89.515C49.5669 88.3664 49.8313 87.2349 50.3257 86.198C50.8202 85.1612 51.533 84.2435 52.4153 83.508C52.3568 83.4627 52.3009 83.4149 52.2451 83.3643C51.0286 82.2808 50.1729 80.851 49.7928 79.2669C49.4128 77.6828 49.5267 76.0203 50.1192 74.5029C50.7117 72.9854 51.7544 71.6856 53.1073 70.7781C54.4602 69.8707 56.0584 69.399 57.6872 69.4264C59.316 69.4539 60.8974 69.9792 62.2189 70.9318C63.5404 71.8843 64.5387 73.2185 65.0797 74.7551C65.6208 76.2917 65.6785 77.9571 65.2453 79.5275C64.8121 81.0978 63.9086 82.498 62.6563 83.5399C62.7148 83.5851 62.7707 83.633 62.8266 83.6835C63.6967 84.4544 64.3879 85.4062 64.8518 86.4722C65.3157 87.5381 65.5411 88.6926 65.5122 89.8547C65.4833 91.0169 65.2009 92.1587 64.6846 93.2003C64.1683 94.242 63.4307 95.1582 62.5233 95.8849V95.8849Z" fill="#BE7880" stroke="#070707" stroke-width="1.1" stroke-miterlimit="10"/>
<path d="M56.7139 110.026V247.38" stroke="#070707" stroke-width="0.98" stroke-miterlimit="10"/>
<path d="M198.455 129.01H201.237C203.831 129.01 206.319 130.04 208.153 131.875C209.987 133.709 211.018 136.197 211.018 138.791V247.247H188.674V138.791C188.674 136.197 189.704 133.709 191.539 131.875C193.373 130.04 195.861 129.01 198.455 129.01V129.01Z" fill="white" stroke="#070707" stroke-width="1.01" stroke-miterlimit="10"/>
<path d="M199.888 98.0955V247.38" stroke="#070707" stroke-width="1.17" stroke-miterlimit="10"/>
<path d="M218.596 163.909V246.462" stroke="#070707" stroke-width="1.1" stroke-miterlimit="10"/>
<path d="M66.3138 247.38V174.318" stroke="#070707" stroke-width="0.95" stroke-miterlimit="10"/>
<path d="M47.6805 163.912L66.4123 190.166L66.4442 210.377L50.3193 190.15L47.6805 163.912Z" fill="#BF6C2B" stroke="#070707" stroke-width="1.1" stroke-miterlimit="10"/>
<path d="M66.4441 184.652L74.6529 169.628L85.9392 168.163V177.983L66.4441 184.652Z" fill="white" stroke="#070707" stroke-width="1.1" stroke-miterlimit="10"/>
<path d="M199.835 106.461H153.075C153.075 106.461 160.842 122.868 180.337 124.919C199.832 126.97 199.835 146.124 199.835 146.124V106.461Z" fill="#BE7880" stroke="#070707" stroke-width="1.1" stroke-miterlimit="10"/>
<path d="M167.58 108.943C167.58 108.943 168.019 117.003 182.971 119.051C197.923 121.099 199.83 132.787 199.83 132.787V106.453H167.841L167.58 108.943Z" fill="#BF6C2B" stroke="#070707" stroke-width="1.1" stroke-miterlimit="10"/>
<path d="M199.835 106.461H246.582C246.582 106.461 238.815 122.868 219.32 124.919C199.824 126.97 199.824 146.124 199.824 146.124L199.835 106.461Z" fill="#BE7880" stroke="#070707" stroke-width="1.1" stroke-miterlimit="10"/>
<path d="M232.082 108.943C232.082 108.943 231.643 117.003 216.692 119.051C201.74 121.099 199.835 132.787 199.835 132.787V106.453H231.822L232.082 108.943Z" fill="#BF6C2B" stroke="#070707" stroke-width="1.1" stroke-miterlimit="10"/>
<path d="M199.835 103.373C202.75 103.373 205.113 101.01 205.113 98.0956C205.113 95.1809 202.75 92.8181 199.835 92.8181C196.921 92.8181 194.558 95.1809 194.558 98.0956C194.558 101.01 196.921 103.373 199.835 103.373Z" fill="#BF6C2B" stroke="#070707" stroke-width="1.1" stroke-miterlimit="10"/>
<path d="M199.835 108.062C205.34 108.062 209.802 103.6 209.802 98.0954C209.802 92.5908 205.34 88.1284 199.835 88.1284C194.331 88.1284 189.868 92.5908 189.868 98.0954C189.868 103.6 194.331 108.062 199.835 108.062Z" stroke="#070707" stroke-miterlimit="10"/>
<path d="M50.3271 190.161C50.3271 190.161 66.2552 213.425 66.3696 190.161L66.484 210.331L50.3271 190.161Z" fill="#070707"/>
<path d="M74.6209 169.535C74.6821 169.437 66.484 184.66 66.484 184.66L85.9658 178.01C85.9658 178.01 63.84 186.495 74.6209 169.535Z" fill="#070707"/>
<path d="M190.906 128.59C190.906 128.59 199.152 122.387 208.765 128.59C203.817 132.594 200.583 138.334 199.721 144.64C199.721 144.64 197.861 132.91 190.906 128.59Z" fill="#070707"/>
<path d="M195.321 95.3584C195.321 95.3584 196.957 104.041 204.897 99.5984C204.897 99.5984 203.894 103.296 199.883 103.41C199.878 103.41 192.254 102.434 195.321 95.3584Z" fill="#070707"/>
<path d="M49.742 75.6079C49.742 75.6079 52.3621 83.1251 56.6181 82.8591C56.6181 82.8591 47.3081 90.0411 55.0221 95.3611C55.0221 95.3611 49.5691 105.238 55.2216 109.608C55.2216 109.608 50.3166 109.225 49.3457 102.426C49.3457 102.426 48.9041 98.0211 52.3621 95.6271C52.3621 95.6271 49.2659 93.8023 49.617 88.3307C49.617 88.3307 49.7021 86.0511 52.3621 83.3911C52.3488 83.3911 49.2339 81.9281 49.742 75.6079Z" fill="#070707"/>
<path d="M89.7245 199.487C92.4775 199.487 94.7093 197.255 94.7093 194.502C94.7093 191.749 92.4775 189.517 89.7245 189.517C86.9714 189.517 84.7396 191.749 84.7396 194.502C84.7396 197.255 86.9714 199.487 89.7245 199.487Z" fill="#BF6C2B" stroke="#070707" stroke-width="1.1" stroke-miterlimit="10"/>
<path d="M86.9181 190.403C86.9181 190.403 84.0054 198.308 93.6559 197.564C93.6559 197.564 90.5623 201.168 86.5058 198.306C86.5058 198.306 82.1062 194.872 86.9181 190.403Z" fill="#070707"/>
<path d="M85.4685 219.703C88.2215 219.703 90.4533 217.471 90.4533 214.718C90.4533 211.965 88.2215 209.733 85.4685 209.733C82.7154 209.733 80.4836 211.965 80.4836 214.718C80.4836 217.471 82.7154 219.703 85.4685 219.703Z" fill="#BF6C2B" stroke="#070707" stroke-width="1.1" stroke-miterlimit="10"/>
<path d="M82.6622 210.619C82.6622 210.619 79.7495 218.524 89.3999 217.78C89.3999 217.78 86.3064 221.384 82.2499 218.522C82.2499 218.522 77.8502 215.088 82.6622 210.619Z" fill="#070707"/>
<path d="M85.801 246.316V219.716" stroke="#070707" stroke-width="1.2" stroke-miterlimit="10"/>
<path d="M58.7328 227.563H77.6188C77.6188 227.563 85.8648 227.829 85.8648 245.917C85.8648 245.917 65.6488 246.449 66.1808 237.937C66.1808 237.937 55.0088 235.809 58.7328 227.563Z" fill="#BF6C2B" stroke="#070707" stroke-width="1.1" stroke-miterlimit="10"/>
<path d="M113.05 227.563H94.164C94.164 227.563 85.918 227.829 85.918 245.917C85.918 245.917 106.134 246.449 105.602 237.937C105.602 237.937 116.774 235.809 113.05 227.563Z" fill="white" stroke="#070707" stroke-width="1.1" stroke-miterlimit="10"/>
<path d="M100.04 215.263C100.04 215.263 99.867 227.659 104.597 232.42C109.326 237.182 109.134 241.797 105.448 240.69C101.761 239.584 85.2716 223.56 85.2716 223.56C85.2716 223.56 86.3728 218.011 89.1924 217.216C92.012 216.42 97.2177 213.611 94.3103 209.236L100.04 215.263Z" fill="#ECE856" stroke="#070707" stroke-width="1.08" stroke-linejoin="bevel"/>
<path d="M85.2503 222.461C85.2503 222.461 104.136 239.653 107.669 240.078C107.669 240.078 107.214 242.363 104.118 240.61C101.021 238.857 84.854 223.972 84.854 223.972L85.2503 222.461Z" fill="white" stroke="#070707" stroke-width="1.07" stroke-miterlimit="10"/>
<path d="M137.256 143.507C136.764 156.067 100.846 216.973 100.846 216.973L92.7595 213.332C92.7595 213.332 97.1379 194.414 99.3696 191.868C104.245 186.314 111.321 184.859 109.784 179.191C108.382 174.028 110.135 164.17 110.241 161.858C110.241 161.858 103.195 140.166 122.778 125.185L137.256 143.507Z" fill="#BE7880" stroke="#070707" stroke-width="1.1" stroke-miterlimit="10"/>
<path d="M93.5522 213.739L100.072 216.726L100.311 220.942L93.3607 214.093L93.5522 213.739Z" fill="#070707"/>
<path d="M135.099 226.746C135.099 226.746 140.911 237.517 147.276 239.078C153.642 240.64 155.695 244.723 151.987 245.744C148.279 246.766 126.369 241.815 126.369 241.815C126.369 241.815 124.65 236.445 126.696 234.248C128.741 232.05 131.872 226.84 127.262 224.624L135.099 226.746Z" fill="#ECE856" stroke="#070707" stroke-width="1.08" stroke-linejoin="bevel"/>
<path d="M126.297 241.661C126.297 241.661 150.503 246.619 153.934 245.092C153.934 245.092 154.682 247.305 150.966 247.444C147.25 247.582 126.031 243.523 126.031 243.523L126.297 241.661Z" fill="white" stroke="#070707" stroke-width="1.1" stroke-miterlimit="10"/>
<path d="M137.578 143.201C143.196 154.283 137.128 227.523 137.128 227.523L128.406 228.736C128.406 228.736 123.086 210.092 123.778 206.703C125.302 199.303 130.694 194.252 126.645 190.195C122.956 186.503 119.338 171.897 118.317 169.849C118.317 169.849 106.081 161.337 111.864 136.708L137.578 143.201Z" fill="#BE7880" stroke="#070707" stroke-width="1.1" stroke-miterlimit="10"/>
<path d="M129.622 228.494L135.474 227.696L138.065 231.492L129.622 229.292V228.494Z" fill="#070707"/>
<path d="M119.86 81.2711L119.913 86.5831L127.627 86.8491V80.4651H120.179L119.86 81.2711Z" fill="white" stroke="#070707" stroke-width="1.04" stroke-miterlimit="10"/>
<path d="M134.25 65.7234L134.269 67.5428C134.27 67.6825 134.3 67.8204 134.359 67.9471L136.487 72.6261C136.817 73.3496 136.221 74.1423 135.346 74.1529C135.074 74.1466 134.807 74.2313 134.588 74.3937C134.37 74.5561 134.211 74.7868 134.138 75.0493C133.76 76.7884 132.805 78.3487 131.429 79.4778C130.054 80.6069 128.337 81.2388 126.557 81.2711L120.647 81.3349C120.335 81.3554 120.028 81.2515 119.793 81.0462C119.558 80.8408 119.413 80.5505 119.391 80.239L119.237 65.875C119.252 65.5626 119.389 65.2687 119.62 65.0578C119.851 64.8468 120.156 64.7361 120.469 64.7498L133 64.6381C133.309 64.6197 133.613 64.723 133.846 64.9258C134.08 65.1287 134.225 65.415 134.25 65.7234V65.7234Z" fill="white" stroke="#070707" stroke-width="1.04" stroke-miterlimit="10"/>
<path d="M30.3905 247.308H231.064" stroke="#070707" stroke-width="1.1" stroke-miterlimit="10"/>
<path d="M152.631 158.137C152.631 158.137 173.113 160.797 173.645 182.609C173.645 182.609 157.685 186.599 152.631 158.137Z" fill="white" stroke="#070707" stroke-width="1.1" stroke-miterlimit="10"/>
<path d="M173.379 182.343C173.379 182.343 189.339 186.333 194.393 157.871C194.393 157.871 173.911 160.531 173.379 182.343Z" fill="white" stroke="#070707" stroke-width="1.1" stroke-miterlimit="10"/>
<path d="M173.767 152.75C179.272 152.75 183.734 148.288 183.734 142.783C183.734 137.279 179.272 132.816 173.767 132.816C168.263 132.816 163.8 137.279 163.8 142.783C163.8 148.288 168.263 152.75 173.767 152.75Z" stroke="#070707" stroke-miterlimit="10"/>
<path d="M29.7388 157.605C29.7388 157.605 50.2208 160.265 50.7528 182.077C50.7528 182.077 34.7928 186.067 29.7388 157.605Z" fill="white" stroke="#070707" stroke-width="1.1" stroke-miterlimit="10"/>
<path d="M50.4868 181.811C50.4868 181.811 66.4468 185.801 71.5008 157.339C71.5008 157.339 51.0188 159.999 50.4868 181.811Z" fill="white" stroke="#070707" stroke-width="1.1" stroke-miterlimit="10"/>
<path d="M50.4974 142.251V247.114" stroke="#070707" stroke-width="0.86" stroke-miterlimit="10"/>
<path d="M50.8752 147.529C53.7899 147.529 56.1527 145.166 56.1527 142.252C56.1527 139.337 53.7899 136.974 50.8752 136.974C47.9606 136.974 45.5978 139.337 45.5978 142.252C45.5978 145.166 47.9606 147.529 50.8752 147.529Z" fill="#BF6C2B" stroke="#070707" stroke-width="1.1" stroke-miterlimit="10"/>
<path d="M50.8752 152.218C56.3799 152.218 60.8422 147.756 60.8422 142.251C60.8422 136.747 56.3799 132.284 50.8752 132.284C45.3706 132.284 40.9082 136.747 40.9082 142.251C40.9082 147.756 45.3706 152.218 50.8752 152.218Z" stroke="#070707" stroke-miterlimit="10"/>
<path d="M157.153 216.923C157.153 216.923 177.635 219.583 178.167 241.395C178.167 241.395 162.207 245.385 157.153 216.923Z" fill="white" stroke="#070707" stroke-width="1.1" stroke-miterlimit="10"/>
<path d="M177.901 241.129C177.901 241.129 193.861 245.119 198.915 216.657C198.915 216.657 178.433 219.317 177.901 241.129Z" fill="white" stroke="#070707" stroke-width="1.1" stroke-miterlimit="10"/>
<path d="M177.784 201.835V247.114" stroke="#070707" stroke-width="0.86" stroke-miterlimit="10"/>
<path d="M178.289 206.847C181.204 206.847 183.567 204.484 183.567 201.569C183.567 198.655 181.204 196.292 178.289 196.292C175.375 196.292 173.012 198.655 173.012 201.569C173.012 204.484 175.375 206.847 178.289 206.847Z" fill="#BF6C2B" stroke="#070707" stroke-width="1.1" stroke-miterlimit="10"/>
<path d="M178.289 211.537C183.794 211.537 188.256 207.074 188.256 201.57C188.256 196.065 183.794 191.603 178.289 191.603C172.785 191.603 168.322 196.065 168.322 201.57C168.322 207.074 172.785 211.537 178.289 211.537Z" stroke="#070707" stroke-miterlimit="10"/>
<path d="M49.3324 137.269C49.3324 137.269 46.2308 145.369 52.8808 146.965C52.8808 146.965 49.6702 149.178 45.8212 144.215C45.8212 144.215 44.1879 139.275 49.3324 137.269Z" fill="#070707"/>
<path d="M182.875 70.1975V247.38" stroke="#070707" stroke-width="1.11" stroke-miterlimit="10"/>
<path d="M162.976 77.1878L182.968 102.381L208.488 76.8606" stroke="#070707" stroke-width="1.22" stroke-miterlimit="10"/>
<path d="M160.941 63.4543L182.968 85.4845L204.998 63.4543" stroke="#070707" stroke-width="1.22" stroke-miterlimit="10"/>
<path d="M211.552 220.767C214.306 220.767 216.537 218.535 216.537 215.782C216.537 213.029 214.306 210.797 211.552 210.797C208.799 210.797 206.568 213.029 206.568 215.782C206.568 218.535 208.799 220.767 211.552 220.767Z" fill="#BF6C2B" stroke="#070707" stroke-width="1.1" stroke-miterlimit="10"/>
<path d="M208.746 211.683C208.746 211.683 205.82 219.588 215.484 218.844C215.484 218.844 212.39 222.448 208.334 219.586C208.334 219.586 203.934 216.152 208.746 211.683Z" fill="#070707"/>
<path d="M211.885 247.38V220.78" stroke="#070707" stroke-width="1.2" stroke-miterlimit="10"/>
<path d="M184.817 228.627H203.703C203.703 228.627 211.949 228.893 211.949 246.981C211.949 246.981 191.733 247.513 192.265 239.001C192.265 239.001 181.093 236.873 184.817 228.627Z" fill="#BF6C2B" stroke="#070707" stroke-width="1.1" stroke-miterlimit="10"/>
<path d="M239.134 228.627H220.248C220.248 228.627 212.002 228.893 212.002 246.981C212.002 246.981 232.218 247.513 231.686 239.001C231.686 239.001 242.858 236.873 239.134 228.627Z" fill="white" stroke="#070707" stroke-width="1.1" stroke-miterlimit="10"/>
<path d="M100.622 153.014C102.684 153.014 104.354 151.343 104.354 149.282C104.354 147.221 102.684 145.55 100.622 145.55C98.5614 145.55 96.8905 147.221 96.8905 149.282C96.8905 151.343 98.5614 153.014 100.622 153.014Z" fill="#BE7880" stroke="#070707" stroke-width="0.83" stroke-miterlimit="10"/>
<path d="M98.5211 146.212C98.5211 146.212 96.3399 152.133 103.575 151.575C103.575 151.575 101.258 154.272 98.2232 152.131C98.2126 152.131 94.9168 149.558 98.5211 146.212Z" fill="#070707"/>
<path d="M42.9004 124.552C44.9616 124.552 46.6324 122.881 46.6324 120.82C46.6324 118.759 44.9616 117.088 42.9004 117.088C40.8393 117.088 39.1685 118.759 39.1685 120.82C39.1685 122.881 40.8393 124.552 42.9004 124.552Z" fill="#BE7880" stroke="#070707" stroke-width="0.83" stroke-miterlimit="10"/>
<path d="M40.7991 117.75C40.7991 117.75 38.6179 123.671 45.8531 123.113C45.8531 123.113 43.5362 125.81 40.5012 123.669C40.4905 123.669 37.1948 121.097 40.7991 117.75Z" fill="#070707"/>
<path d="M90.2485 47.1458C92.3096 47.1458 93.9804 45.475 93.9804 43.4139C93.9804 41.3528 92.3096 39.6819 90.2485 39.6819C88.1873 39.6819 86.5165 41.3528 86.5165 43.4139C86.5165 45.475 88.1873 47.1458 90.2485 47.1458Z" fill="#BE7880" stroke="#070707" stroke-width="0.83" stroke-miterlimit="10"/>
<path d="M88.1471 40.3442C88.1471 40.3442 85.9659 46.2654 93.2011 45.7068C93.2011 45.7068 90.8842 48.404 87.8492 46.2627C87.8385 46.2627 84.5428 43.6905 88.1471 40.3442Z" fill="#070707"/>
<path d="M191.595 59.1158C193.656 59.1158 195.327 57.445 195.327 55.3838C195.327 53.3227 193.656 51.6519 191.595 51.6519C189.533 51.6519 187.863 53.3227 187.863 55.3838C187.863 57.445 189.533 59.1158 191.595 59.1158Z" fill="#BE7880" stroke="#070707" stroke-width="0.83" stroke-miterlimit="10"/>
<path d="M189.493 52.3142C189.493 52.3142 187.312 58.2354 194.547 57.6768C194.547 57.6768 192.23 60.374 189.195 58.2327C189.184 58.2327 185.889 55.6605 189.493 52.3142Z" fill="#070707"/>
<path d="M174.086 198.449C174.086 198.449 175.353 205.924 182.598 204.772C182.598 204.772 180.234 207.663 176.667 206.573C173.1 205.482 172.397 200.992 174.086 198.449Z" fill="#070707"/>
<path d="M118.051 78.3371C125.396 78.3371 131.351 72.3824 131.351 65.0371C131.351 57.6917 125.396 51.7371 118.051 51.7371C110.705 51.7371 104.751 57.6917 104.751 65.0371C104.751 72.3824 110.705 78.3371 118.051 78.3371Z" fill="#ECE856" stroke="#070707" stroke-width="1.32" stroke-linejoin="bevel"/>
<path d="M132.05 67.6836C136.311 67.6836 139.764 64.2299 139.764 59.9696C139.764 55.7093 136.311 52.2556 132.05 52.2556C127.79 52.2556 124.336 55.7093 124.336 59.9696C124.336 64.2299 127.79 67.6836 132.05 67.6836Z" fill="#ECE856" stroke="#070707" stroke-width="1.08" stroke-linejoin="bevel"/>
<path d="M137.602 105.868L138.4 144.438L110.204 138.32L116.104 99.9788L107.81 105.07L107.278 98.952L107.544 96.026L118.391 85.91L119.378 83.3298L128.026 85.652L128.63 86.9262L140.052 85.1493L130.577 91.0385L137.602 105.868Z" fill="#070707"/>
<path d="M167.462 67.814L69.921 128.528L112.653 197.179L210.194 136.465L167.462 67.814Z" fill="#BF6C2B" stroke="#070707" stroke-width="1.1" stroke-miterlimit="10"/>
<path d="M171.57 82.1196C171.57 82.1196 164.481 83.7023 163.116 80.9944C161.752 78.2865 158.72 73.2565 163.755 74.4295C168.79 75.6026 177.768 78.1881 177.768 78.1881L176.438 82.2632L171.57 82.1196Z" fill="white" stroke="#070707" stroke-width="1.28" stroke-miterlimit="10"/>
<path d="M170.586 70.7561L181.492 73.1501L182.024 80.8641L179.893 87.2641L169.623 71.0859L170.586 70.7561Z" fill="#070707"/>
<path d="M118.474 150.484L136.235 181.247L128.632 185.636L111.129 155.32L93.6958 166.803L88.8679 159.472L106.735 147.707L88.1178 115.46L95.7201 111.071L114.079 142.869L185.298 95.9648L190.126 103.296L118.474 150.484Z" fill="#ECE856"/>
<path d="M146.768 132.223L162.412 134.74C162.412 134.74 167.697 132.308 160.874 130.271L154.312 128.281L147.845 128.664L146.768 132.223Z" fill="white" stroke="#070707" stroke-width="1.28" stroke-miterlimit="10"/>
<path d="M121.913 93.5095C121.913 93.5095 127.217 124.719 128.901 125.065C130.585 125.411 154.067 126.914 154.067 126.914L150.157 134.218L119.136 137.423L107.421 100.548" fill="#070707"/>
</svg>
